<svg width="57" height="15" viewBox="0 0 57 15" fill="none" xmlns="http://www.w3.org/2000/svg">
<path d="M4.70312 14.4766C4.94922 14.8594 5.52344 14.8594 5.76953 14.4766C9.76172 8.73438 10.5 8.13281 10.5 6C10.5 3.10156 8.14844 0.75 5.25 0.75C2.32422 0.75 0 3.10156 0 6C0 8.13281 0.710938 8.73438 4.70312 14.4766ZM5.25 8.1875C4.01953 8.1875 3.0625 7.23047 3.0625 6C3.0625 4.79688 4.01953 3.8125 5.25 3.8125C6.45312 3.8125 7.4375 4.79688 7.4375 6C7.4375 7.23047 6.45312 8.1875 5.25 8.1875ZM33.332 1.43359L30.4883 0.777344C30.1875 0.695312 29.8594 0.859375 29.7227 1.16016L28.4102 4.22266C28.3008 4.49609 28.3828 4.79688 28.6016 4.98828L30.2695 6.35547C29.2852 8.43359 27.5625 10.1836 25.4297 11.1953L24.0625 9.52734C23.8711 9.30859 23.5703 9.22656 23.2969 9.33594L20.2344 10.6484C19.9336 10.7852 19.7969 11.1133 19.8516 11.4141L20.5078 14.2578C20.5898 14.5586 20.8359 14.75 21.1641 14.75C28.1641 14.75 33.8516 9.08984 33.8516 2.0625C33.8516 1.76172 33.6328 1.51562 33.332 1.43359ZM56.1641 5.97266C55.5352 6.46484 54.7422 7.06641 51.9531 9.08984C51.4062 9.5 50.3945 10.4023 49.4375 10.4023C48.4531 10.4023 47.4688 9.5 46.8945 9.08984C44.1055 7.06641 43.3125 6.46484 42.6836 5.97266C42.5742 5.89062 42.4375 5.97266 42.4375 6.10938V11.6875C42.4375 12.4258 43.0117 13 43.75 13H55.125C55.8359 13 56.4375 12.4258 56.4375 11.6875V6.10938C56.4375 5.97266 56.2734 5.89062 56.1641 5.97266ZM49.4375 9.5C50.0664 9.52734 50.9688 8.70703 51.4336 8.37891C55.0703 5.75391 55.3438 5.50781 56.1641 4.85156C56.3281 4.74219 56.4375 4.55078 56.4375 4.33203V3.8125C56.4375 3.10156 55.8359 2.5 55.125 2.5H43.75C43.0117 2.5 42.4375 3.10156 42.4375 3.8125V4.33203C42.4375 4.55078 42.5195 4.74219 42.6836 4.85156C43.5039 5.50781 43.7773 5.75391 47.4141 8.37891C47.8789 8.70703 48.7812 9.52734 49.4375 9.5Z" fill="#E8C300"/>
</svg>
