<svg width="70" height="70" viewBox="0 0 70 70" fill="none" xmlns="http://www.w3.org/2000/svg">
<g filter="url(#filter0_d)">
<circle cx="35" cy="31" r="30" stroke="white" stroke-opacity="0.2"/>
<path d="M35 27.4917C34.1927 27.4917 33.4375 27.7 32.7344 28.1167C32.0573 28.5073 31.5104 29.0542 31.0938 29.7573C30.7031 30.4344 30.5078 31.1766 30.5078 31.9839C30.5078 32.7912 30.7031 33.5464 31.0938 34.2495C31.5104 34.9266 32.0573 35.4735 32.7344 35.8901C33.4375 36.2808 34.1927 36.4761 35 36.4761C35.8073 36.4761 36.5495 36.2808 37.2266 35.8901C37.9297 35.4735 38.4766 34.9266 38.8672 34.2495C39.2839 33.5464 39.4922 32.7912 39.4922 31.9839C39.4922 31.1766 39.2839 30.4344 38.8672 29.7573C38.4766 29.0542 37.9297 28.5073 37.2266 28.1167C36.5495 27.7 35.8073 27.4917 35 27.4917ZM35 34.9136C34.1927 34.9136 33.5026 34.6271 32.9297 34.0542C32.3568 33.4813 32.0703 32.7912 32.0703 31.9839C32.0703 31.1766 32.3568 30.4865 32.9297 29.9136C33.5026 29.3407 34.1927 29.0542 35 29.0542C35.8073 29.0542 36.4974 29.3407 37.0703 29.9136C37.6432 30.4865 37.9297 31.1766 37.9297 31.9839C37.9297 32.7912 37.6432 33.4813 37.0703 34.0542C36.4974 34.6271 35.8073 34.9136 35 34.9136ZM40.7422 27.2964C40.7161 27.5828 40.599 27.8302 40.3906 28.0386C40.2083 28.2469 39.974 28.3511 39.6875 28.3511C39.401 28.3511 39.1536 28.2469 38.9453 28.0386C38.737 27.8302 38.6328 27.5828 38.6328 27.2964C38.6328 27.0099 38.737 26.7625 38.9453 26.5542C39.1536 26.3459 39.401 26.2417 39.6875 26.2417C39.974 26.2417 40.2214 26.3459 40.4297 26.5542C40.638 26.7625 40.7422 27.0099 40.7422 27.2964ZM43.7109 28.3511C43.6589 27.5959 43.5417 26.9448 43.3594 26.3979C43.125 25.7469 42.7604 25.187 42.2656 24.7183C41.7969 24.2235 41.237 23.8589 40.5859 23.6245C40.0391 23.4422 39.388 23.3381 38.6328 23.312C37.9036 23.2599 36.6927 23.2339 35 23.2339C33.3073 23.2339 32.0833 23.2599 31.3281 23.312C30.599 23.3381 29.9609 23.4422 29.4141 23.6245C28.763 23.8589 28.1901 24.2235 27.6953 24.7183C27.2266 25.187 26.875 25.7469 26.6406 26.3979C26.4583 26.9448 26.3411 27.5959 26.2891 28.3511C26.263 29.0802 26.25 30.2912 26.25 31.9839C26.25 33.6766 26.263 34.9006 26.2891 35.6558C26.3411 36.3849 26.4583 37.0229 26.6406 37.5698C26.875 38.2209 27.2266 38.7938 27.6953 39.2886C28.1901 39.7573 28.763 40.0959 29.4141 40.3042C29.9609 40.5125 30.599 40.6297 31.3281 40.6558C32.0833 40.7078 33.3073 40.7339 35 40.7339C36.6927 40.7339 37.9036 40.7078 38.6328 40.6558C39.388 40.6297 40.0391 40.5256 40.5859 40.3433C41.237 40.1089 41.7969 39.7573 42.2656 39.2886C42.7604 38.7938 43.125 38.2209 43.3594 37.5698C43.5417 37.0229 43.6458 36.3849 43.6719 35.6558C43.724 34.9006 43.75 33.6766 43.75 31.9839C43.75 30.2912 43.737 29.0802 43.7109 28.3511ZM41.8359 37.1401C41.5234 37.9214 40.9635 38.4813 40.1562 38.8198C39.7396 38.9761 39.0365 39.0802 38.0469 39.1323C37.5 39.1584 36.6927 39.1714 35.625 39.1714H34.375C33.3333 39.1714 32.526 39.1584 31.9531 39.1323C30.9896 39.0802 30.2865 38.9761 29.8438 38.8198C29.0625 38.5073 28.5026 37.9474 28.1641 37.1401C28.0078 36.6974 27.9036 35.9943 27.8516 35.0308C27.8255 34.4578 27.8125 33.6506 27.8125 32.6089V31.3589C27.8125 30.3172 27.8255 29.5099 27.8516 28.937C27.9036 27.9474 28.0078 27.2443 28.1641 26.8276C28.4766 26.0203 29.0365 25.4604 29.8438 25.1479C30.2865 24.9917 30.9896 24.8875 31.9531 24.8354C32.526 24.8094 33.3333 24.7964 34.375 24.7964H35.625C36.6667 24.7964 37.474 24.8094 38.0469 24.8354C39.0365 24.8875 39.7396 24.9917 40.1562 25.1479C40.9635 25.4604 41.5234 26.0203 41.8359 26.8276C41.9922 27.2443 42.0964 27.9474 42.1484 28.937C42.1745 29.4839 42.1875 30.2912 42.1875 31.3589V32.6089C42.1875 33.6506 42.1745 34.4578 42.1484 35.0308C42.0964 35.9943 41.9922 36.6974 41.8359 37.1401Z" fill="white"/>
</g>
<defs>
<filter id="filter0_d" x="0.5" y="0.5" width="69" height="69" filterUnits="userSpaceOnUse" color-interpolation-filters="sRGB">
<feFlood flood-opacity="0" result="BackgroundImageFix"/>
<feColorMatrix in="SourceAlpha" type="matrix" values="0 0 0 0 0 0 0 0 0 0 0 0 0 0 0 0 0 0 127 0"/>
<feOffset dy="4"/>
<feGaussianBlur stdDeviation="2"/>
<feColorMatrix type="matrix" values="0 0 0 0 0 0 0 0 0 0 0 0 0 0 0 0 0 0 0.25 0"/>
<feBlend mode="normal" in2="BackgroundImageFix" result="effect1_dropShadow"/>
<feBlend mode="normal" in="SourceGraphic" in2="effect1_dropShadow" result="shape"/>
</filter>
</defs>
</svg>
