<svg width="62" height="222" viewBox="0 0 62 222" fill="none" xmlns="http://www.w3.org/2000/svg">
<circle cx="31" cy="191" r="30" stroke="white" stroke-opacity="0.2"/>
<path d="M31 187.492C30.1927 187.492 29.4375 187.7 28.7344 188.117C28.0573 188.507 27.5104 189.054 27.0938 189.757C26.7031 190.434 26.5078 191.177 26.5078 191.984C26.5078 192.791 26.7031 193.546 27.0938 194.25C27.5104 194.927 28.0573 195.473 28.7344 195.89C29.4375 196.281 30.1927 196.476 31 196.476C31.8073 196.476 32.5495 196.281 33.2266 195.89C33.9297 195.473 34.4766 194.927 34.8672 194.25C35.2839 193.546 35.4922 192.791 35.4922 191.984C35.4922 191.177 35.2839 190.434 34.8672 189.757C34.4766 189.054 33.9297 188.507 33.2266 188.117C32.5495 187.7 31.8073 187.492 31 187.492ZM31 194.914C30.1927 194.914 29.5026 194.627 28.9297 194.054C28.3568 193.481 28.0703 192.791 28.0703 191.984C28.0703 191.177 28.3568 190.486 28.9297 189.914C29.5026 189.341 30.1927 189.054 31 189.054C31.8073 189.054 32.4974 189.341 33.0703 189.914C33.6432 190.486 33.9297 191.177 33.9297 191.984C33.9297 192.791 33.6432 193.481 33.0703 194.054C32.4974 194.627 31.8073 194.914 31 194.914ZM36.7422 187.296C36.7161 187.583 36.599 187.83 36.3906 188.039C36.2083 188.247 35.974 188.351 35.6875 188.351C35.401 188.351 35.1536 188.247 34.9453 188.039C34.737 187.83 34.6328 187.583 34.6328 187.296C34.6328 187.01 34.737 186.763 34.9453 186.554C35.1536 186.346 35.401 186.242 35.6875 186.242C35.974 186.242 36.2214 186.346 36.4297 186.554C36.638 186.763 36.7422 187.01 36.7422 187.296ZM39.7109 188.351C39.6589 187.596 39.5417 186.945 39.3594 186.398C39.125 185.747 38.7604 185.187 38.2656 184.718C37.7969 184.223 37.237 183.859 36.5859 183.625C36.0391 183.442 35.388 183.338 34.6328 183.312C33.9036 183.26 32.6927 183.234 31 183.234C29.3073 183.234 28.0833 183.26 27.3281 183.312C26.599 183.338 25.9609 183.442 25.4141 183.625C24.763 183.859 24.1901 184.223 23.6953 184.718C23.2266 185.187 22.875 185.747 22.6406 186.398C22.4583 186.945 22.3411 187.596 22.2891 188.351C22.263 189.08 22.25 190.291 22.25 191.984C22.25 193.677 22.263 194.901 22.2891 195.656C22.3411 196.385 22.4583 197.023 22.6406 197.57C22.875 198.221 23.2266 198.794 23.6953 199.289C24.1901 199.757 24.763 200.096 25.4141 200.304C25.9609 200.513 26.599 200.63 27.3281 200.656C28.0833 200.708 29.3073 200.734 31 200.734C32.6927 200.734 33.9036 200.708 34.6328 200.656C35.388 200.63 36.0391 200.526 36.5859 200.343C37.237 200.109 37.7969 199.757 38.2656 199.289C38.7604 198.794 39.125 198.221 39.3594 197.57C39.5417 197.023 39.6458 196.385 39.6719 195.656C39.724 194.901 39.75 193.677 39.75 191.984C39.75 190.291 39.737 189.08 39.7109 188.351ZM37.8359 197.14C37.5234 197.921 36.9635 198.481 36.1562 198.82C35.7396 198.976 35.0365 199.08 34.0469 199.132C33.5 199.158 32.6927 199.171 31.625 199.171H30.375C29.3333 199.171 28.526 199.158 27.9531 199.132C26.9896 199.08 26.2865 198.976 25.8438 198.82C25.0625 198.507 24.5026 197.947 24.1641 197.14C24.0078 196.697 23.9036 195.994 23.8516 195.031C23.8255 194.458 23.8125 193.651 23.8125 192.609V191.359C23.8125 190.317 23.8255 189.51 23.8516 188.937C23.9036 187.947 24.0078 187.244 24.1641 186.828C24.4766 186.02 25.0365 185.46 25.8438 185.148C26.2865 184.992 26.9896 184.888 27.9531 184.835C28.526 184.809 29.3333 184.796 30.375 184.796H31.625C32.6667 184.796 33.474 184.809 34.0469 184.835C35.0365 184.888 35.7396 184.992 36.1562 185.148C36.9635 185.46 37.5234 186.02 37.8359 186.828C37.9922 187.244 38.0964 187.947 38.1484 188.937C38.1745 189.484 38.1875 190.291 38.1875 191.359V192.609C38.1875 193.651 38.1745 194.458 38.1484 195.031C38.0964 195.994 37.9922 196.697 37.8359 197.14Z" fill="white"/>
<circle cx="31" cy="111" r="30" stroke="white" stroke-opacity="0.2"/>
<path d="M38.9297 107.921C38.9557 108.026 38.9688 108.195 38.9688 108.429C38.9688 110.304 38.513 112.114 37.6016 113.859C36.6641 115.708 35.349 117.179 33.6562 118.273C31.8073 119.497 29.6849 120.109 27.2891 120.109C24.9974 120.109 22.901 119.497 21 118.273C21.2865 118.299 21.612 118.312 21.9766 118.312C23.8776 118.312 25.5833 117.726 27.0938 116.554C26.1823 116.554 25.375 116.294 24.6719 115.773C23.9948 115.226 23.526 114.549 23.2656 113.742C23.526 113.768 23.7734 113.781 24.0078 113.781C24.3724 113.781 24.737 113.742 25.1016 113.664C24.1641 113.455 23.3828 112.973 22.7578 112.218C22.1328 111.463 21.8203 110.604 21.8203 109.64V109.562C22.3932 109.901 23.0052 110.083 23.6562 110.109C23.1094 109.718 22.6667 109.223 22.3281 108.625C21.9896 108.026 21.8203 107.375 21.8203 106.671C21.8203 105.942 22.0156 105.252 22.4062 104.601C23.4219 105.877 24.6589 106.893 26.1172 107.648C27.6016 108.403 29.1771 108.82 30.8438 108.898C30.7917 108.585 30.7656 108.273 30.7656 107.96C30.7656 107.231 30.9479 106.554 31.3125 105.929C31.6771 105.278 32.1719 104.77 32.7969 104.406C33.4219 104.041 34.099 103.859 34.8281 103.859C35.4271 103.859 35.974 103.976 36.4688 104.21C36.9896 104.445 37.4453 104.757 37.8359 105.148C38.7734 104.966 39.6458 104.64 40.4531 104.171C40.1406 105.135 39.5417 105.89 38.6562 106.437C39.4375 106.333 40.2188 106.111 41 105.773C40.4271 106.606 39.737 107.322 38.9297 107.921Z" fill="white"/>
<circle cx="31" cy="31" r="30" stroke="white" stroke-opacity="0.2"/>
<path d="M28.8516 41.9839V33.0386H25.8438V29.4839H28.8516V26.6714C28.8516 25.187 29.2682 24.0412 30.1016 23.2339C30.9349 22.4006 32.0417 21.9839 33.4219 21.9839C34.5417 21.9839 35.4531 22.036 36.1562 22.1401V25.3042H34.2812C33.5781 25.3042 33.0964 25.4604 32.8359 25.7729C32.6276 26.0334 32.5234 26.45 32.5234 27.0229V29.4839H35.8438L35.375 33.0386H32.5234V41.9839H28.8516Z" fill="white"/>
</svg>
