<?xml version="1.0" encoding="UTF-8" standalone="no"?>
<svg
   xmlns:dc="http://purl.org/dc/elements/1.1/"
   xmlns:cc="http://creativecommons.org/ns#"
   xmlns:rdf="http://www.w3.org/1999/02/22-rdf-syntax-ns#"
   xmlns:svg="http://www.w3.org/2000/svg"
   xmlns="http://www.w3.org/2000/svg"
   xmlns:sodipodi="http://sodipodi.sourceforge.net/DTD/sodipodi-0.dtd"
   xmlns:inkscape="http://www.inkscape.org/namespaces/inkscape"
   width="210"
   height="70"
   viewBox="0 0 210 70"
   version="1.1"
   id="svg25"
   sodipodi:docname="social.svg"
   style="fill:none"
   inkscape:version="0.92.3 (2405546, 2018-03-11)">
  <metadata
     id="metadata29">
    <rdf:RDF>
      <cc:Work
         rdf:about="">
        <dc:format>image/svg+xml</dc:format>
        <dc:type
           rdf:resource="http://purl.org/dc/dcmitype/StillImage" />
        <dc:title></dc:title>
      </cc:Work>
    </rdf:RDF>
  </metadata>
  <sodipodi:namedview
     pagecolor="#ffffff"
     bordercolor="#666666"
     borderopacity="1"
     objecttolerance="10"
     gridtolerance="10"
     guidetolerance="10"
     inkscape:pageopacity="0"
     inkscape:pageshadow="2"
     inkscape:window-width="1920"
     inkscape:window-height="1017"
     id="namedview27"
     showgrid="false"
     inkscape:zoom="3.3714286"
     inkscape:cx="54.416783"
     inkscape:cy="60.881016"
     inkscape:window-x="-8"
     inkscape:window-y="-8"
     inkscape:window-maximized="1"
     inkscape:current-layer="g6" />
  <g
     id="g847"
     style="stroke:#000000;stroke-opacity:1">
    <g
       style="stroke:#000000;stroke-opacity:1;filter:url(#filter0_d)"
       id="g6">
      <circle
         style="stroke:#000000;stroke-opacity:1"
         id="circle2"
         r="30"
         cy="31"
         cx="35" />
      <path
         style="fill:#ffffff;stroke:#000000;stroke-opacity:1"
         inkscape:connector-curvature="0"
         id="path4"
         d="m 35,27.4917 c -0.8073,0 -1.5625,0.2083 -2.2656,0.625 -0.6771,0.3906 -1.224,0.9375 -1.6406,1.6406 -0.3907,0.6771 -0.586,1.4193 -0.586,2.2266 0,0.8073 0.1953,1.5625 0.586,2.2656 0.4166,0.6771 0.9635,1.224 1.6406,1.6406 0.7031,0.3907 1.4583,0.586 2.2656,0.586 0.8073,0 1.5495,-0.1953 2.2266,-0.586 0.7031,-0.4166 1.25,-0.9635 1.6406,-1.6406 0.4167,-0.7031 0.625,-1.4583 0.625,-2.2656 0,-0.8073 -0.2083,-1.5495 -0.625,-2.2266 -0.3906,-0.7031 -0.9375,-1.25 -1.6406,-1.6406 C 36.5495,27.7 35.8073,27.4917 35,27.4917 Z m 0,7.4219 c -0.8073,0 -1.4974,-0.2865 -2.0703,-0.8594 -0.5729,-0.5729 -0.8594,-1.263 -0.8594,-2.0703 0,-0.8073 0.2865,-1.4974 0.8594,-2.0703 0.5729,-0.5729 1.263,-0.8594 2.0703,-0.8594 0.8073,0 1.4974,0.2865 2.0703,0.8594 0.5729,0.5729 0.8594,1.263 0.8594,2.0703 0,0.8073 -0.2865,1.4974 -0.8594,2.0703 -0.5729,0.5729 -1.263,0.8594 -2.0703,0.8594 z m 5.7422,-7.6172 c -0.0261,0.2864 -0.1432,0.5338 -0.3516,0.7422 -0.1823,0.2083 -0.4166,0.3125 -0.7031,0.3125 -0.2865,0 -0.5339,-0.1042 -0.7422,-0.3125 -0.2083,-0.2084 -0.3125,-0.4558 -0.3125,-0.7422 0,-0.2865 0.1042,-0.5339 0.3125,-0.7422 0.2083,-0.2083 0.4557,-0.3125 0.7422,-0.3125 0.2865,0 0.5339,0.1042 0.7422,0.3125 0.2083,0.2083 0.3125,0.4557 0.3125,0.7422 z m 2.9687,1.0547 C 43.6589,27.5959 43.5417,26.9448 43.3594,26.3979 43.125,25.7469 42.7604,25.187 42.2656,24.7183 41.7969,24.2235 41.237,23.8589 40.5859,23.6245 40.0391,23.4422 39.388,23.3381 38.6328,23.312 37.9036,23.2599 36.6927,23.2339 35,23.2339 c -1.6927,0 -2.9167,0.026 -3.6719,0.0781 -0.7291,0.0261 -1.3672,0.1302 -1.914,0.3125 -0.6511,0.2344 -1.224,0.599 -1.7188,1.0938 -0.4687,0.4687 -0.8203,1.0286 -1.0547,1.6796 -0.1823,0.5469 -0.2995,1.198 -0.3515,1.9532 -0.0261,0.7291 -0.0391,1.9401 -0.0391,3.6328 0,1.6927 0.013,2.9167 0.0391,3.6719 0.052,0.7291 0.1692,1.3671 0.3515,1.914 0.2344,0.6511 0.586,1.224 1.0547,1.7188 0.4948,0.4687 1.0677,0.8073 1.7188,1.0156 0.5468,0.2083 1.1849,0.3255 1.914,0.3516 0.7552,0.052 1.9792,0.0781 3.6719,0.0781 1.6927,0 2.9036,-0.0261 3.6328,-0.0781 0.7552,-0.0261 1.4063,-0.1302 1.9531,-0.3125 0.6511,-0.2344 1.211,-0.586 1.6797,-1.0547 0.4948,-0.4948 0.8594,-1.0677 1.0938,-1.7188 0.1823,-0.5469 0.2864,-1.1849 0.3125,-1.914 0.0521,-0.7552 0.0781,-1.9792 0.0781,-3.6719 0,-1.6927 -0.013,-2.9037 -0.0391,-3.6328 z m -1.875,8.789 c -0.3125,0.7813 -0.8724,1.3412 -1.6797,1.6797 -0.4166,0.1563 -1.1197,0.2604 -2.1093,0.3125 -0.5469,0.0261 -1.3542,0.0391 -2.4219,0.0391 h -1.25 c -1.0417,0 -1.849,-0.013 -2.4219,-0.0391 -0.9635,-0.0521 -1.6666,-0.1562 -2.1093,-0.3125 -0.7813,-0.3125 -1.3412,-0.8724 -1.6797,-1.6797 -0.1563,-0.4427 -0.2605,-1.1458 -0.3125,-2.1093 -0.0261,-0.573 -0.0391,-1.3802 -0.0391,-2.4219 v -1.25 c 0,-1.0417 0.013,-1.849 0.0391,-2.4219 0.052,-0.9896 0.1562,-1.6927 0.3125,-2.1094 0.3125,-0.8073 0.8724,-1.3672 1.6797,-1.6797 0.4427,-0.1562 1.1458,-0.2604 2.1093,-0.3125 0.5729,-0.026 1.3802,-0.039 2.4219,-0.039 h 1.25 c 1.0417,0 1.849,0.013 2.4219,0.039 0.9896,0.0521 1.6927,0.1563 2.1093,0.3125 0.8073,0.3125 1.3672,0.8724 1.6797,1.6797 0.1563,0.4167 0.2605,1.1198 0.3125,2.1094 0.0261,0.5469 0.0391,1.3542 0.0391,2.4219 v 1.25 c 0,1.0417 -0.013,1.8489 -0.0391,2.4219 -0.052,0.9635 -0.1562,1.6666 -0.3125,2.1093 z" />
    </g>
  </g>
  <defs
     id="defs23">
    <filter
       id="filter0_d"
       x="0.5"
       y="0.5"
       width="69"
       height="69"
       filterUnits="userSpaceOnUse"
       style="color-interpolation-filters:sRGB">
      <feFlood
         flood-opacity="0"
         result="BackgroundImageFix"
         id="feFlood8" />
      <feColorMatrix
         in="SourceAlpha"
         type="matrix"
         values="0 0 0 0 0 0 0 0 0 0 0 0 0 0 0 0 0 0 127 0"
         id="feColorMatrix10" />
      <feOffset
         dy="4"
         id="feOffset12" />
      <feGaussianBlur
         stdDeviation="2"
         id="feGaussianBlur14" />
      <feColorMatrix
         type="matrix"
         values="0 0 0 0 0 0 0 0 0 0 0 0 0 0 0 0 0 0 0.25 0"
         id="feColorMatrix16" />
      <feBlend
         mode="normal"
         in2="BackgroundImageFix"
         result="effect1_dropShadow"
         id="feBlend18" />
      <feBlend
         mode="normal"
         in="SourceGraphic"
         in2="effect1_dropShadow"
         result="shape"
         id="feBlend20" />
    </filter>
  </defs>
  <g
     id="g859"
     transform="translate(15.024844,1.8449538)"
     style="stroke:#000000;stroke-opacity:1">
    <circle
       id="circle2-5"
       r="30"
       cy="29.067797"
       cx="86.016953"
       style="stroke:#000000;stroke-opacity:1" />
    <path
       id="path4-5"
       d="m 93.946649,25.989197 c 0.026,0.1042 0.0391,0.2734 0.0391,0.5078 0,1.875 -0.4558,3.6849 -1.3672,5.4297 -0.9375,1.8489 -2.2526,3.3203 -3.9454,4.414 -1.8489,1.224 -3.9713,1.836 -6.3671,1.836 -2.2917,0 -4.3881,-0.612 -6.2891,-1.836 0.2865,0.0261 0.612,0.0391 0.9766,0.0391 1.901,0 3.6067,-0.5859 5.1172,-1.7578 -0.9115,0 -1.7188,-0.2604 -2.4219,-0.7813 -0.6771,-0.5468 -1.1459,-1.2239 -1.4063,-2.0312 0.2604,0.026 0.5078,0.0391 0.7422,0.0391 0.3646,0 0.7292,-0.0391 1.0938,-0.1172 -0.9375,-0.2084 -1.7188,-0.6901 -2.3438,-1.4453 -0.625,-0.7552 -0.9375,-1.6146 -0.9375,-2.5782 v -0.0781 c 0.5729,0.3386 1.1849,0.5208 1.8359,0.5469 -0.5468,-0.3906 -0.9895,-0.8854 -1.3281,-1.4844 -0.3385,-0.5989 -0.5078,-1.25 -0.5078,-1.9531 0,-0.7292 0.1953,-1.4193 0.5859,-2.0703 1.0157,1.276 2.2527,2.2916 3.711,3.0468 1.4844,0.7553 3.0599,1.1719 4.7266,1.25 -0.0521,-0.3125 -0.0782,-0.625 -0.0782,-0.9375 0,-0.7291 0.1823,-1.4062 0.5469,-2.0312 0.3646,-0.651 0.8594,-1.1589 1.4844,-1.5234 0.625,-0.3646 1.3021,-0.5469 2.0312,-0.5469 0.599,0 1.1459,0.1172 1.6407,0.3515 0.5208,0.2344 0.9765,0.5469 1.3671,0.9375 0.9375,-0.1822 1.8099,-0.5078 2.6172,-0.9765 -0.3125,0.9635 -0.9114,1.7187 -1.7969,2.2656 0.7813,-0.1042 1.5626,-0.3255 2.3438,-0.6641 -0.5729,0.8334 -1.263,1.5495 -2.0703,2.1485 z"
       style="fill:#ffffff;stroke:#000000;stroke-opacity:1"
       inkscape:connector-curvature="0" />
  </g>
  <g
     id="g871"
     transform="translate(13.389596,-8.8896512)"
     style="stroke:#000000;stroke-opacity:1">
    <circle
       id="circle2-8"
       r="30"
       cy="39.745762"
       cx="153.64407"
       style="stroke:#000000;stroke-opacity:1" />
    <path
       id="path4-9"
       d="m 151.49567,50.729663 v -8.9453 h -3.0078 v -3.5547 h 3.0078 v -2.8125 c 0,-1.4844 0.4166,-2.6302 1.25,-3.4375 0.8333,-0.8333 1.9401,-1.25 3.3203,-1.25 1.1198,0 2.0312,0.0521 2.7343,0.1562 v 3.1641 h -1.875 c -0.7031,0 -1.1848,0.1562 -1.4453,0.4687 -0.2083,0.2605 -0.3125,0.6771 -0.3125,1.25 v 2.461 h 3.3204 l -0.4688,3.5547 h -2.8516 v 8.9453 z"
       style="fill:#ffffff;stroke:#000000;stroke-opacity:1"
       inkscape:connector-curvature="0" />
  </g>
</svg>
